<svg width="32" height="32" viewBox="0 0 32 32" fill="none" xmlns="http://www.w3.org/2000/svg">
<circle cx="16" cy="16" r="16" fill="#1E1E1E"/>
<mask id="path-2-inside-1_50_7" fill="white">
<path d="M18.1261 10.062L15.7535 8.57812C13.2494 7.01196 10.0001 8.8122 10.0001 11.7658V20.2344C10.0001 23.166 13.2062 24.9697 15.7117 23.4478L18.1261 21.9812L22.5514 19.6354C25.0764 18.297 25.2439 14.7422 22.8561 13.1721L18.1261 10.062Z"/>
</mask>
<path d="M18.1261 10.062L15.7535 8.57812C13.2494 7.01196 10.0001 8.8122 10.0001 11.7658V20.2344C10.0001 23.166 13.2062 24.9697 15.7117 23.4478L18.1261 21.9812L22.5514 19.6354C25.0764 18.297 25.2439 14.7422 22.8561 13.1721L18.1261 10.062Z" fill="#276FFF"/>
<path d="M18.1261 10.062L18.7907 8.99949L18.8028 9.00704L18.8147 9.01487L18.1261 10.062ZM18.1261 21.9812L17.4755 20.9101L17.5068 20.8911L17.5392 20.8739L18.1261 21.9812ZM22.5514 19.6354L21.9644 18.5282L22.5514 19.6354ZM22.8561 13.1721L23.5446 12.1249L22.8561 13.1721ZM15.7117 23.4478L16.3624 24.5189L15.7117 23.4478ZM15.7535 8.57812L16.4181 7.51558L15.7535 8.57812ZM17.4616 11.1246L15.089 9.64067L16.4181 7.51558L18.7907 8.99949L17.4616 11.1246ZM11.2534 11.7658V20.2344H8.74688V11.7658H11.2534ZM15.0611 22.3766L17.4755 20.9101L18.7768 23.0523L16.3624 24.5189L15.0611 22.3766ZM17.5392 20.8739L21.9644 18.5282L23.1383 20.7427L18.7131 23.0885L17.5392 20.8739ZM22.1675 14.2192L17.4376 11.1092L18.8147 9.01487L23.5446 12.1249L22.1675 14.2192ZM21.9644 18.5282C23.6477 17.6358 23.7595 15.266 22.1675 14.2192L23.5446 12.1249C26.7284 14.2184 26.505 18.9581 23.1383 20.7427L21.9644 18.5282ZM11.2534 20.2344C11.2534 22.1888 13.3907 23.3913 15.0611 22.3766L16.3624 24.5189C13.0216 26.5481 8.74688 24.1432 8.74688 20.2344H11.2534ZM15.089 9.64067C13.4195 8.59656 11.2534 9.79671 11.2534 11.7658H8.74688C8.74688 7.82768 13.0792 5.42736 16.4181 7.51558L15.089 9.64067Z" fill="#276FFF" mask="url(#path-2-inside-1_50_7)"/>
</svg>
