<svg width="173" height="32" viewBox="0 0 173 32" fill="none" xmlns="http://www.w3.org/2000/svg">
<path fill-rule="evenodd" clip-rule="evenodd" d="M12.3831 6.65629C12.3831 5.19564 13.9607 4.27961 15.2292 5.00367L19.5785 7.4861C20.1718 7.82477 20.5381 8.45553 20.5381 9.13872V27.5409C20.5381 28.2157 20.1806 28.8401 19.5986 29.1818L15.2494 31.7352C13.9808 32.4799 12.3831 31.5652 12.3831 30.0942V6.65629Z" fill="#276FFF"/>
<path fill-rule="evenodd" clip-rule="evenodd" d="M4.1008e-05 1.90609C4.1008e-05 0.383393 1.69959 -0.522528 2.96372 0.326337L7.31296 3.24686C7.83929 3.60028 8.15503 4.19263 8.15503 4.82661V27.0452C8.15503 27.6703 7.84796 28.2556 7.33357 28.6109L2.98433 31.6149C1.72211 32.4867 4.1008e-05 31.5832 4.1008e-05 30.0492V1.90609Z" fill="#276FFF"/>
<mask id="path-3-inside-1_32_14" fill="white">
<path fill-rule="evenodd" clip-rule="evenodd" d="M4.79361 13.382C4.80249 11.0296 7.39285 9.59848 9.38997 10.8475L11.2855 12.033L15.0642 14.5177C16.9719 15.772 16.838 18.6119 14.8208 19.6812L11.2855 21.5553L9.3566 22.7269C7.35836 23.9407 4.80243 22.5067 4.79361 20.1719V13.382Z"/>
</mask>
<path fill-rule="evenodd" clip-rule="evenodd" d="M4.79361 13.382C4.80249 11.0296 7.39285 9.59848 9.38997 10.8475L11.2855 12.033L15.0642 14.5177C16.9719 15.772 16.838 18.6119 14.8208 19.6812L11.2855 21.5553L9.3566 22.7269C7.35836 23.9407 4.80243 22.5067 4.79361 20.1719V13.382Z" fill="white"/>
<path d="M9.38997 10.8475L9.92088 9.99868V9.99868L9.38997 10.8475ZM4.79361 13.382H3.79238L3.7924 13.3782L4.79361 13.382ZM11.2855 12.033L11.8164 11.1842L11.826 11.1902L11.8355 11.1965L11.2855 12.033ZM15.0642 14.5177L15.6143 13.6811H15.6143L15.0642 14.5177ZM14.8208 19.6812L15.2897 20.5659L14.8208 19.6812ZM11.2855 21.5553L10.7657 20.6996L10.7907 20.6844L10.8165 20.6707L11.2855 21.5553ZM9.3566 22.7269L8.83681 21.8712L9.3566 22.7269ZM4.79361 20.1719L3.79239 20.1757V20.1719H4.79361ZM8.85906 11.6964C7.52774 10.8638 5.80074 11.8178 5.79482 13.3858L3.7924 13.3782C3.80423 10.2415 7.25796 8.3332 9.92088 9.99868L8.85906 11.6964ZM10.7545 12.8819L8.85906 11.6964L9.92088 9.99868L11.8164 11.1842L10.7545 12.8819ZM14.5141 15.3542L10.7354 12.8696L11.8355 11.1965L15.6143 13.6811L14.5141 15.3542ZM14.3519 18.7966C15.6967 18.0838 15.7859 16.1905 14.5141 15.3542L15.6143 13.6811C18.1578 15.3535 17.9793 19.1401 15.2897 20.5659L14.3519 18.7966ZM10.8165 20.6707L14.3519 18.7966L15.2897 20.5659L11.7544 22.4399L10.8165 20.6707ZM8.83681 21.8712L10.7657 20.6996L11.8052 22.411L9.87638 23.5826L8.83681 21.8712ZM5.79482 20.1681C5.8007 21.7244 7.50474 22.6803 8.83681 21.8712L9.87638 23.5826C7.21198 25.2011 3.80416 23.2891 3.7924 20.1757L5.79482 20.1681ZM3.79239 20.1719V13.382H5.79483V20.1719H3.79239Z" fill="#276FFF" mask="url(#path-3-inside-1_32_14)"/>
<path d="M38.1669 25V8.24364H40.5989V15.4698H48.9771V8.24364H51.4208V25H48.9771V17.7622H40.5989V25H38.1669ZM58.2387 25.3491C57.3078 25.3491 56.5282 25.1784 55.8998 24.8371C55.2715 24.488 54.7944 24.0303 54.4686 23.464C54.1505 22.8899 53.9915 22.2616 53.9915 21.5789C53.9915 20.9428 54.104 20.3842 54.3289 19.9033C54.5539 19.4223 54.8875 19.015 55.3297 18.6815C55.7718 18.3401 56.3149 18.0647 56.9587 17.8553C57.5173 17.6924 58.1495 17.5488 58.8555 17.4247C59.5614 17.3006 60.3023 17.1842 61.078 17.0756C61.8615 16.967 62.6373 16.8584 63.4053 16.7498L62.5209 17.2385C62.5364 16.2533 62.327 15.5241 61.8926 15.0509C61.4659 14.5699 60.7289 14.3295 59.6817 14.3295C59.0223 14.3295 58.4172 14.4846 57.8664 14.7949C57.3156 15.0975 56.9316 15.6017 56.7144 16.3076L54.4453 15.6095C54.7556 14.5312 55.3452 13.6739 56.214 13.0378C57.0906 12.4017 58.2543 12.0836 59.7049 12.0836C60.8298 12.0836 61.8072 12.2776 62.6373 12.6655C63.4751 13.0456 64.088 13.6507 64.4758 14.4807C64.6775 14.8919 64.8017 15.3263 64.8482 15.784C64.8947 16.2417 64.918 16.7343 64.918 17.2618V25H62.7653V22.1258L63.1842 22.4982C62.6644 23.4601 62.0012 24.1777 61.1944 24.6509C60.3954 25.1164 59.4101 25.3491 58.2387 25.3491ZM58.6693 23.3593C59.3597 23.3593 59.9532 23.239 60.4497 22.9985C60.9461 22.7503 61.3457 22.4361 61.6482 22.056C61.9507 21.6759 62.1486 21.2802 62.2417 20.8691C62.3735 20.4967 62.4472 20.0778 62.4627 19.6124C62.486 19.1469 62.4977 18.7745 62.4977 18.4953L63.2889 18.7862C62.5209 18.9025 61.8227 19.0073 61.1944 19.1004C60.566 19.1935 59.9958 19.2865 59.4838 19.3796C58.9796 19.465 58.5297 19.5697 58.134 19.6938C57.8004 19.8102 57.5018 19.9498 57.238 20.1127C56.982 20.2756 56.7764 20.4735 56.6213 20.7062C56.4739 20.9389 56.4002 21.2221 56.4002 21.5556C56.4002 21.8815 56.4817 22.184 56.6446 22.4633C56.8075 22.7348 57.0557 22.952 57.3893 23.1149C57.7229 23.2778 58.1495 23.3593 58.6693 23.3593ZM67.928 25L67.9397 8.24364H70.4066V18.4836L75.3404 12.4327H78.4357L73.2226 18.7164L78.9709 25H75.6662L70.4066 18.9491V25H67.928ZM85.3744 25.3491C84.1177 25.3491 83.0277 25.0659 82.1046 24.4996C81.1814 23.9333 80.4677 23.1537 79.9635 22.1607C79.467 21.16 79.2187 20.008 79.2187 18.7047C79.2187 17.3937 79.4747 16.2417 79.9867 15.2487C80.4987 14.248 81.2163 13.4722 82.1395 12.9215C83.0626 12.3629 84.1409 12.0836 85.3744 12.0836C86.6311 12.0836 87.7211 12.3668 88.6442 12.9331C89.5674 13.4994 90.281 14.279 90.7853 15.272C91.2895 16.265 91.5417 17.4092 91.5417 18.7047C91.5417 20.0158 91.2857 21.1716 90.7737 22.1724C90.2694 23.1653 89.5557 23.945 88.6326 24.5113C87.7094 25.0698 86.6234 25.3491 85.3744 25.3491ZM85.3744 23.0567C86.5768 23.0567 87.4728 22.6533 88.0624 21.8465C88.6597 21.032 88.9584 19.9847 88.9584 18.7047C88.9584 17.3937 88.6558 16.3464 88.0507 15.5629C87.4534 14.7716 86.5613 14.376 85.3744 14.376C84.5598 14.376 83.8888 14.5622 83.3613 14.9345C82.8338 15.2992 82.442 15.8073 82.186 16.4589C81.93 17.1028 81.802 17.8514 81.802 18.7047C81.802 20.0235 82.1046 21.0785 82.7097 21.8698C83.3147 22.6611 84.203 23.0567 85.3744 23.0567ZM109.156 25L109.168 17.1687C109.168 16.2611 108.935 15.5552 108.47 15.0509C108.004 14.5389 107.391 14.2829 106.631 14.2829C106.166 14.2829 105.739 14.3915 105.351 14.6087C104.971 14.8182 104.661 15.1362 104.42 15.5629C104.187 15.9818 104.071 16.5093 104.071 17.1455L102.896 16.552C102.88 15.6676 103.067 14.8919 103.454 14.2247C103.85 13.5576 104.385 13.0417 105.06 12.6771C105.735 12.3047 106.491 12.1185 107.329 12.1185C108.687 12.1185 109.738 12.5258 110.483 13.3404C111.227 14.1549 111.6 15.2371 111.6 16.5869L111.588 25H109.156ZM94.0871 25V12.4327H96.2515V16.0633H96.5307V25H94.0871ZM101.627 25L101.639 17.2153C101.639 16.2999 101.406 15.5823 100.941 15.0625C100.483 14.5428 99.8665 14.2829 99.0907 14.2829C98.3227 14.2829 97.7021 14.5467 97.2289 15.0742C96.7635 15.6017 96.5307 16.2921 96.5307 17.1455L95.3671 16.4007C95.3671 15.5784 95.5649 14.8453 95.9606 14.2015C96.3562 13.5576 96.8915 13.0495 97.5664 12.6771C98.2413 12.3047 99.0054 12.1185 99.8587 12.1185C100.751 12.1185 101.511 12.3086 102.139 12.6887C102.768 13.0611 103.245 13.5847 103.571 14.2596C103.904 14.9345 104.071 15.7181 104.071 16.6102L104.059 25H101.627ZM119.92 25.3491C118.663 25.3491 117.573 25.0659 116.65 24.4996C115.727 23.9333 115.013 23.1537 114.509 22.1607C114.012 21.16 113.764 20.008 113.764 18.7047C113.764 17.3937 114.02 16.2417 114.532 15.2487C115.044 14.248 115.762 13.4722 116.685 12.9215C117.608 12.3629 118.686 12.0836 119.92 12.0836C121.177 12.0836 122.267 12.3668 123.19 12.9331C124.113 13.4994 124.827 14.279 125.331 15.272C125.835 16.265 126.087 17.4092 126.087 18.7047C126.087 20.0158 125.831 21.1716 125.319 22.1724C124.815 23.1653 124.101 23.945 123.178 24.5113C122.255 25.0698 121.169 25.3491 119.92 25.3491ZM119.92 23.0567C121.122 23.0567 122.018 22.6533 122.608 21.8465C123.205 21.032 123.504 19.9847 123.504 18.7047C123.504 17.3937 123.201 16.3464 122.596 15.5629C121.999 14.7716 121.107 14.376 119.92 14.376C119.105 14.376 118.434 14.5622 117.907 14.9345C117.379 15.2992 116.987 15.8073 116.731 16.4589C116.475 17.1028 116.347 17.8514 116.347 18.7047C116.347 20.0235 116.65 21.0785 117.255 21.8698C117.86 22.6611 118.748 23.0567 119.92 23.0567ZM131.587 25L127.026 12.4327H129.481L132.821 21.9513L136.161 12.4327H138.616L134.054 25H131.587ZM140.945 10.3731V8.01091H143.377V10.3731H140.945ZM140.945 25V12.4327H143.377V25H140.945ZM152.445 25.3491C151.196 25.3491 150.099 25.0776 149.152 24.5345C148.214 23.9838 147.48 23.2196 146.953 22.2422C146.433 21.257 146.173 20.1166 146.173 18.8211C146.173 17.448 146.429 16.2572 146.941 15.2487C147.461 14.2402 148.182 13.4606 149.106 12.9098C150.029 12.359 151.103 12.0836 152.329 12.0836C153.609 12.0836 154.699 12.3823 155.599 12.9796C156.499 13.5692 157.17 14.4109 157.612 15.5047C158.062 16.5985 158.24 17.8979 158.147 19.4029H155.715V18.5185C155.7 17.0601 155.42 15.9818 154.877 15.2836C154.342 14.5855 153.524 14.2364 152.422 14.2364C151.204 14.2364 150.289 14.6204 149.676 15.3884C149.063 16.1564 148.757 17.2657 148.757 18.7164C148.757 20.0972 149.063 21.1678 149.676 21.928C150.289 22.6805 151.173 23.0567 152.329 23.0567C153.089 23.0567 153.745 22.8861 154.295 22.5447C154.854 22.1956 155.288 21.6992 155.599 21.0553L157.984 21.8116C157.495 22.9365 156.755 23.8092 155.762 24.4298C154.769 25.0427 153.663 25.3491 152.445 25.3491ZM147.965 19.4029V17.5062H156.937V19.4029H147.965ZM165.564 25.3375C164.035 25.3375 162.79 25 161.828 24.3251C160.866 23.6502 160.277 22.6999 160.06 21.4742L162.55 21.0902C162.705 21.7418 163.062 22.2577 163.62 22.6378C164.187 23.0102 164.889 23.1964 165.727 23.1964C166.487 23.1964 167.08 23.0412 167.507 22.7309C167.941 22.4206 168.159 21.9939 168.159 21.4509C168.159 21.1328 168.081 20.8768 167.926 20.6829C167.778 20.4812 167.464 20.2912 166.983 20.1127C166.502 19.9343 165.769 19.7132 164.784 19.4495C163.706 19.1702 162.849 18.8715 162.212 18.5535C161.584 18.2276 161.134 17.8514 160.863 17.4247C160.599 16.9903 160.467 16.4667 160.467 15.8538C160.467 15.0936 160.669 14.4303 161.072 13.864C161.475 13.2977 162.042 12.8594 162.771 12.5491C163.508 12.2388 164.369 12.0836 165.354 12.0836C166.316 12.0836 167.173 12.2349 167.926 12.5375C168.678 12.84 169.287 13.2705 169.753 13.8291C170.218 14.3799 170.497 15.0276 170.591 15.7724L168.1 16.2262C168.015 15.6211 167.732 15.144 167.251 14.7949C166.77 14.4458 166.145 14.2558 165.377 14.2247C164.641 14.1937 164.043 14.3178 163.585 14.5971C163.128 14.8686 162.899 15.2448 162.899 15.7258C162.899 16.0051 162.984 16.2417 163.155 16.4356C163.333 16.6296 163.675 16.8158 164.179 16.9942C164.683 17.1726 165.428 17.3859 166.413 17.6342C167.468 17.9057 168.306 18.2082 168.927 18.5418C169.547 18.8676 169.989 19.2594 170.253 19.7171C170.525 20.167 170.66 20.7139 170.66 21.3578C170.66 22.599 170.207 23.5726 169.299 24.2785C168.399 24.9845 167.154 25.3375 165.564 25.3375Z" fill="#1B1B1B"/>
</svg>
