<svg width="21" height="32" viewBox="0 0 21 32" fill="none" xmlns="http://www.w3.org/2000/svg">
<path fill-rule="evenodd" clip-rule="evenodd" d="M12.3831 6.65629C12.3831 5.19564 13.9607 4.27961 15.2292 5.00367L19.5785 7.4861C20.1718 7.82477 20.5381 8.45553 20.5381 9.13872V27.5409C20.5381 28.2157 20.1806 28.8401 19.5986 29.1818L15.2494 31.7352C13.9808 32.4799 12.3831 31.5652 12.3831 30.0942V6.65629Z" fill="#276FFF"/>
<path fill-rule="evenodd" clip-rule="evenodd" d="M4.1008e-05 1.90609C4.1008e-05 0.383393 1.69959 -0.522528 2.96372 0.326337L7.31296 3.24686C7.83929 3.60028 8.15503 4.19263 8.15503 4.82661V27.0452C8.15503 27.6703 7.84796 28.2556 7.33357 28.6109L2.98433 31.6149C1.72211 32.4867 4.1008e-05 31.5832 4.1008e-05 30.0492V1.90609Z" fill="#276FFF"/>
<mask id="path-3-inside-1_35_64" fill="white">
<path fill-rule="evenodd" clip-rule="evenodd" d="M4.79361 13.382C4.80249 11.0296 7.39285 9.59848 9.38997 10.8475L11.2855 12.033L15.0642 14.5177C16.9719 15.772 16.838 18.6119 14.8208 19.6812L11.2855 21.5553L9.3566 22.7269C7.35836 23.9407 4.80243 22.5067 4.79361 20.1719V13.382Z"/>
</mask>
<path fill-rule="evenodd" clip-rule="evenodd" d="M4.79361 13.382C4.80249 11.0296 7.39285 9.59848 9.38997 10.8475L11.2855 12.033L15.0642 14.5177C16.9719 15.772 16.838 18.6119 14.8208 19.6812L11.2855 21.5553L9.3566 22.7269C7.35836 23.9407 4.80243 22.5067 4.79361 20.1719V13.382Z" fill="white"/>
<path d="M9.38997 10.8475L9.92088 9.99868V9.99868L9.38997 10.8475ZM4.79361 13.382H3.79238L3.7924 13.3782L4.79361 13.382ZM11.2855 12.033L11.8164 11.1842L11.826 11.1902L11.8355 11.1965L11.2855 12.033ZM15.0642 14.5177L15.6143 13.6811H15.6143L15.0642 14.5177ZM14.8208 19.6812L15.2897 20.5659L14.8208 19.6812ZM11.2855 21.5553L10.7657 20.6996L10.7907 20.6844L10.8165 20.6707L11.2855 21.5553ZM9.3566 22.7269L8.83681 21.8712L9.3566 22.7269ZM4.79361 20.1719L3.79239 20.1757V20.1719H4.79361ZM8.85906 11.6964C7.52774 10.8638 5.80074 11.8178 5.79482 13.3858L3.7924 13.3782C3.80423 10.2415 7.25796 8.3332 9.92088 9.99868L8.85906 11.6964ZM10.7545 12.8819L8.85906 11.6964L9.92088 9.99868L11.8164 11.1842L10.7545 12.8819ZM14.5141 15.3542L10.7354 12.8696L11.8355 11.1965L15.6143 13.6811L14.5141 15.3542ZM14.3519 18.7966C15.6967 18.0838 15.7859 16.1905 14.5141 15.3542L15.6143 13.6811C18.1578 15.3535 17.9793 19.1401 15.2897 20.5659L14.3519 18.7966ZM10.8165 20.6707L14.3519 18.7966L15.2897 20.5659L11.7544 22.4399L10.8165 20.6707ZM8.83681 21.8712L10.7657 20.6996L11.8052 22.411L9.87638 23.5826L8.83681 21.8712ZM5.79482 20.1681C5.8007 21.7244 7.50474 22.6803 8.83681 21.8712L9.87638 23.5826C7.21198 25.2011 3.80416 23.2891 3.7924 20.1757L5.79482 20.1681ZM3.79239 20.1719V13.382H5.79483V20.1719H3.79239Z" fill="#276FFF" mask="url(#path-3-inside-1_35_64)"/>
</svg>
