<svg width="221" height="344" viewBox="0 0 221 344" fill="none" xmlns="http://www.w3.org/2000/svg">
<path d="M133.354 323.029C133.354 338.786 150.468 348.585 164.056 340.607L210.644 313.256C216.879 309.596 220.708 302.908 220.708 295.678V98.5588C220.708 91.2405 216.785 84.4839 210.429 80.8562L163.841 54.2655C150.252 46.5098 133.354 56.3221 133.354 71.9682V323.029Z" fill="#FFBADE"/>
<path d="M0.709961 322.547C0.709961 338.979 19.1563 348.657 32.6769 339.318L79.2651 307.141C84.7752 303.335 88.0645 297.066 88.0645 290.369V52.3686C88.0645 45.5775 84.6823 39.2325 79.0444 35.4466L32.4562 4.16285C18.9151 -4.92995 0.709961 4.77411 0.709961 21.0849V322.547Z" fill="#FFBADE"/>
<mask id="path-3-inside-1_75_19" fill="white">
<path d="M105.569 116.863C84.1727 103.482 56.4207 118.819 56.3344 144.025V216.732C56.4199 241.749 83.8032 257.117 105.211 244.113L125.873 231.563L163.743 211.488C185.351 200.034 186.785 169.613 166.35 156.177L125.873 129.563L105.569 116.863Z"/>
</mask>
<path d="M105.569 116.863C84.1727 103.482 56.4207 118.819 56.3344 144.025V216.732C56.4199 241.749 83.8032 257.117 105.211 244.113L125.873 231.563L163.743 211.488C185.351 200.034 186.785 169.613 166.35 156.177L125.873 129.563L105.569 116.863Z" fill="white"/>
<path d="M105.569 116.863L111.256 107.771L111.256 107.771L105.569 116.863ZM56.3344 144.025H45.6096V144.006L45.6096 143.988L56.3344 144.025ZM56.3344 216.732L45.6096 216.768L45.6096 216.75V216.732H56.3344ZM105.211 244.113L110.779 253.28L110.779 253.28L105.211 244.113ZM125.873 231.563L120.304 222.396L120.572 222.234L120.85 222.087L125.873 231.563ZM163.743 211.488L168.766 220.964L168.766 220.964L163.743 211.488ZM166.35 156.177L172.242 147.216L172.242 147.216L166.35 156.177ZM125.873 129.563L131.56 120.47L131.663 120.534L131.765 120.601L125.873 129.563ZM105.569 116.863L99.8819 125.956C85.619 117.036 67.1167 127.26 67.0592 144.061L56.3344 144.025L45.6096 143.988C45.7246 110.379 82.7265 89.9277 111.256 107.771L105.569 116.863ZM56.3344 144.025H67.0593V216.732H56.3344H45.6096V144.025H56.3344ZM56.3344 216.732L67.0592 216.695C67.1162 233.372 85.3727 243.615 99.6436 234.947L105.211 244.113L110.779 253.28C82.2338 270.619 45.7236 250.127 45.6096 216.768L56.3344 216.732ZM105.211 244.113L99.6433 234.947L120.304 222.396L125.873 231.563L131.441 240.729L110.779 253.28L105.211 244.113ZM125.873 231.563L120.85 222.087L158.72 202.013L163.743 211.488L168.766 220.964L130.895 241.039L125.873 231.563ZM163.743 211.488L158.72 202.013C173.125 194.377 174.081 174.096 160.458 165.138L166.35 156.177L172.242 147.216C199.488 165.131 197.576 205.692 168.766 220.964L163.743 211.488ZM166.35 156.177L160.458 165.138L119.98 138.524L125.873 129.563L131.765 120.601L172.242 147.216L166.35 156.177ZM125.873 129.563L120.185 138.655L99.8816 125.956L105.569 116.863L111.256 107.771L131.56 120.47L125.873 129.563Z" fill="#FFBADE" mask="url(#path-3-inside-1_75_19)"/>
</svg>
