<svg width="32" height="32" viewBox="0 0 32 32" fill="none" xmlns="http://www.w3.org/2000/svg">
<path d="M28.9465 27.0534L23.9999 22.1467C25.92 19.7526 26.8499 16.7138 26.5983 13.6551C26.3467 10.5965 24.9328 7.75043 22.6472 5.70225C20.3617 3.65406 17.3783 2.5594 14.3104 2.64335C11.2426 2.7273 8.3235 3.98347 6.15339 6.15358C3.98329 8.32368 2.72711 11.2428 2.64317 14.3106C2.55922 17.3785 3.65388 20.3619 5.70206 22.6474C7.75025 24.9329 10.5963 26.3469 13.6549 26.5985C16.7136 26.8501 19.7524 25.9202 22.1465 24.0001L27.0532 28.9067C27.1772 29.0317 27.3246 29.1309 27.4871 29.1986C27.6496 29.2663 27.8239 29.3011 27.9999 29.3011C28.1759 29.3011 28.3502 29.2663 28.5126 29.1986C28.6751 29.1309 28.8226 29.0317 28.9465 28.9067C29.1869 28.6581 29.3212 28.3258 29.3212 27.9801C29.3212 27.6343 29.1869 27.302 28.9465 27.0534ZM14.6665 24.0001C12.8206 24.0001 11.0161 23.4527 9.48122 22.4271C7.94636 21.4015 6.75008 19.9439 6.04366 18.2384C5.33725 16.533 5.15241 14.6564 5.51254 12.8459C5.87267 11.0354 6.76159 9.37235 8.06688 8.06706C9.37217 6.76177 11.0352 5.87285 12.8457 5.51273C14.6562 5.1526 16.5328 5.33743 18.2383 6.04385C19.9437 6.75026 21.4014 7.94654 22.4269 9.4814C23.4525 11.0163 23.9999 12.8208 23.9999 14.6667C23.9999 17.1421 23.0165 19.516 21.2662 21.2664C19.5159 23.0167 17.1419 24.0001 14.6665 24.0001Z" fill="white"/>
</svg>
