<svg width="32" height="32" viewBox="0 0 32 32" fill="none" xmlns="http://www.w3.org/2000/svg">
<path d="M12.2039 7.21069C13.8932 4.18135 14.7372 2.66669 15.9999 2.66669C17.2626 2.66669 18.1066 4.18135 19.7959 7.21069L20.2332 7.99469C20.7132 8.85602 20.9532 9.28669 21.3266 9.57069C21.6999 9.85469 22.1666 9.96002 23.0999 10.1707L23.9479 10.3627C27.2279 11.1054 28.8666 11.476 29.2572 12.7307C29.6466 13.984 28.5292 15.292 26.2932 17.9067L25.7146 18.5827C25.0799 19.3254 24.7612 19.6974 24.6186 20.156C24.4759 20.616 24.5239 21.112 24.6199 22.1027L24.7079 23.0054C25.0452 26.4947 25.2146 28.2387 24.1932 29.0134C23.1719 29.788 21.6359 29.0814 18.5666 27.668L17.7706 27.3027C16.8986 26.9 16.4626 26.7 15.9999 26.7C15.5372 26.7 15.1012 26.9 14.2292 27.3027L13.4346 27.668C10.3639 29.0814 8.82791 29.788 7.80791 29.0147C6.78524 28.2387 6.95457 26.4947 7.29191 23.0054L7.37991 22.104C7.47591 21.112 7.52391 20.616 7.37991 20.1574C7.23857 19.6974 6.91991 19.3254 6.28524 18.584L5.70657 17.9067C3.47057 15.2934 2.35324 13.9854 2.74257 12.7307C3.13191 11.476 4.77324 11.104 8.05324 10.3627L8.90124 10.1707C9.83324 9.96002 10.2986 9.85469 10.6732 9.57069C11.0479 9.28669 11.2866 8.85602 11.7666 7.99469L12.2039 7.21069Z" fill="#FFDE59"/>
</svg>
